<svg id="Layer_1" data-name="Layer 1" xmlns="http://www.w3.org/2000/svg" viewBox="0 0 715 277"><defs><style>.cls-1{fill:none;stroke:#505050;stroke-miterlimit:8;stroke-width:3px;stroke-dasharray:3 3;}.cls-2{fill:#505050;}.cls-3{isolation:isolate;}.cls-4{fill:#fff;}.cls-5{fill:#932135;}</style></defs><title>diagram</title><rect class="cls-1" x="1.5" y="1.5" width="712" height="177" rx="29.5"/><rect class="cls-2" x="135" y="92" width="78" height="42"/><g class="cls-3"><g class="cls-3"><path class="cls-4" d="M165.15,112.73c0,5.06-3.15,6.27-5.83,6.27h-3V106.59h2.59C162.11,106.59,165.15,107.58,165.15,112.73ZM158.06,108v9.69h1.39c1.94,0,3.89-.83,3.89-4.92s-2-4.77-4-4.77Z"/></g><g class="cls-3"><path class="cls-4" d="M175.43,118.06l-.37,1.16a1.92,1.92,0,0,1-1.86-1.43,3.22,3.22,0,0,1-2.82,1.43,2.76,2.76,0,0,1-3-2.87c0-2,1.53-3.13,4.18-3.13H173v-.7c0-1.37-.67-1.87-2-1.87a8.56,8.56,0,0,0-2.56.5l-.42-1.21a9.41,9.41,0,0,1,3.28-.65c2.29,0,3.33,1.18,3.33,3.16v4.34C174.64,117.61,175,117.88,175.43,118.06ZM173,116.5v-2.18h-1.25c-1.74,0-2.63.65-2.63,1.94a1.49,1.49,0,0,0,1.64,1.71A2.43,2.43,0,0,0,173,116.5Z"/></g><g class="cls-3"><path class="cls-4" d="M183,118.57a3.62,3.62,0,0,1-2.12.65,2.38,2.38,0,0,1-2.56-2.7v-5.73h-1.66v-1.28h1.66v-2.14l1.65-.2v2.34h2.26l-.18,1.28H180v5.65c0,1,.31,1.41,1.14,1.41a2.33,2.33,0,0,0,1.26-.42Z"/></g><g class="cls-3"><path class="cls-4" d="M191.43,118.06l-.37,1.16a1.92,1.92,0,0,1-1.86-1.43,3.22,3.22,0,0,1-2.82,1.43,2.76,2.76,0,0,1-3-2.87c0-2,1.53-3.13,4.18-3.13H189v-.7c0-1.37-.67-1.87-2-1.87a8.56,8.56,0,0,0-2.56.5l-.42-1.21a9.41,9.41,0,0,1,3.28-.65c2.29,0,3.33,1.18,3.33,3.16v4.34C190.64,117.61,191,117.88,191.43,118.06ZM189,116.5v-2.18h-1.25c-1.74,0-2.63.65-2.63,1.94a1.49,1.49,0,0,0,1.64,1.71A2.43,2.43,0,0,0,189,116.5Z"/></g></g><rect class="cls-2" x="38" y="92" width="89" height="42"/><g class="cls-3"><g class="cls-3"><path class="cls-4" d="M69.31,119H67.66l-.44-5.6c-.16-1.94-.28-4-.3-5.06l-2.69,9.26h-1.6l-2.83-9.28c0,1.46-.09,3.39-.23,5.21L59.16,119H57.54l1-12.41h2.31l2.61,9,2.48-9h2.33Z"/></g><g class="cls-3"><path class="cls-4" d="M79.91,114.25c0,2.93-1.55,5-4.23,5s-4.23-2-4.23-5,1.54-5,4.25-5S79.91,111.24,79.91,114.25Zm-6.68,0c0,2.47.86,3.62,2.45,3.62s2.45-1.15,2.45-3.63-.87-3.62-2.43-3.62S73.23,111.78,73.23,114.26Z"/></g><g class="cls-3"><path class="cls-4" d="M90.46,105.69V119H89l-.16-1.31a3.2,3.2,0,0,1-2.74,1.53c-2.31,0-3.58-2-3.58-4.92s1.4-5,3.72-5a3.4,3.4,0,0,1,2.56,1.18v-5ZM88.8,116.5v-4.65a2.73,2.73,0,0,0-2.2-1.24c-1.42,0-2.3,1.19-2.3,3.65s.79,3.64,2.16,3.64A2.72,2.72,0,0,0,88.8,116.5Z"/></g><g class="cls-3"><path class="cls-4" d="M101.22,114.82h-6c.16,2.2,1.19,3.05,2.56,3.05a4,4,0,0,0,2.46-.83l.72,1a5.13,5.13,0,0,1-3.31,1.19c-2.65,0-4.19-1.86-4.19-4.87s1.49-5.06,3.94-5.06,3.91,1.79,3.91,4.69C101.26,114.3,101.24,114.61,101.22,114.82Zm-1.6-1.33c0-1.85-.74-2.88-2.23-2.88-1.27,0-2.09.88-2.22,3h4.45Z"/></g><g class="cls-3"><path class="cls-4" d="M104,117.13V105.69l1.66-.19v11.59c0,.51.16.76.59.76a1.62,1.62,0,0,0,.61-.11l.44,1.15a2.77,2.77,0,0,1-1.32.33A1.87,1.87,0,0,1,104,117.13Z"/></g></g><rect class="cls-5" x="196" y="221" width="134" height="56"/><g class="cls-3"><g class="cls-3"><path class="cls-4" d="M241.21,235.43c0,2.84-2.07,4-4.8,4h-1.57V244h-1.71V231.59h3.26C239.38,231.59,241.21,232.82,241.21,235.43Zm-1.81,0c0-1.86-1.19-2.52-3-2.52h-1.53v5.16h1.5C238.17,238.09,239.4,237.55,239.4,235.45Z"/></g><g class="cls-3"><path class="cls-4" d="M248.11,234.4,247.8,236a3,3,0,0,0-.82-.1c-1.19,0-1.88.84-2.27,2.66V244h-1.66v-9.49h1.42l.16,1.93a2.73,2.73,0,0,1,2.54-2.15A4.17,4.17,0,0,1,248.11,234.4Z"/></g><g class="cls-3"><path class="cls-4" d="M257.09,244h-1.42l-.13-1.48a3.18,3.18,0,0,1-2.95,1.7c-1.66,0-2.65-1.05-2.65-2.9v-6.81h1.66v6.63c0,1.29.43,1.78,1.46,1.78a2.84,2.84,0,0,0,2.37-1.64v-6.77h1.66Z"/></g><g class="cls-3"><path class="cls-4" d="M267.26,237.19V244H265.6v-6.57c0-1.42-.57-1.84-1.49-1.84a2.87,2.87,0,0,0-2.41,1.68V244H260v-9.49h1.42l.15,1.41a3.43,3.43,0,0,1,2.9-1.63A2.6,2.6,0,0,1,267.26,237.19Z"/></g><g class="cls-3"><path class="cls-4" d="M273,231.09a1.16,1.16,0,1,1-1.17-1.13A1.11,1.11,0,0,1,273,231.09ZM272.7,244H271v-9.49h1.66Z"/></g><g class="cls-3"><path class="cls-4" d="M283.26,237.19V244H281.6v-6.57c0-1.42-.57-1.84-1.49-1.84a2.87,2.87,0,0,0-2.41,1.68V244H276v-9.49h1.42l.15,1.41a3.43,3.43,0,0,1,2.9-1.63A2.6,2.6,0,0,1,283.26,237.19Z"/></g><g class="cls-3"><path class="cls-4" d="M294.69,234.94a9,9,0,0,1-2.77.29,2.5,2.5,0,0,1,1.67,2.4c0,1.87-1.35,3.22-3.61,3.22a4,4,0,0,1-1.21-.18,1.15,1.15,0,0,0-.47.88c0,.43.27.78,1.24.78h1.52c1.94,0,3.24,1.11,3.24,2.62,0,1.84-1.52,2.88-4.45,2.88-3.1,0-4.07-1-4.07-2.88h1.49c0,1.08.49,1.59,2.58,1.59s2.77-.52,2.77-1.48-.72-1.35-1.91-1.35h-1.49c-1.69,0-2.45-.84-2.45-1.8a2.06,2.06,0,0,1,1-1.67,2.74,2.74,0,0,1-1.6-2.63,3.39,3.39,0,0,1,3.66-3.32,8.16,8.16,0,0,0,4.34-.84Zm-6.79,2.67a1.92,1.92,0,0,0,2,2.14,1.89,1.89,0,0,0,2-2.16,1.84,1.84,0,0,0-2-2.11A1.91,1.91,0,0,0,287.9,237.61Z"/></g></g><g class="cls-3"><g class="cls-3"><path class="cls-4" d="M230.8,261.88h-4.7l-.93,3.12h-1.73l4-12.41h2.16l4,12.41h-1.8Zm-.41-1.38L228.46,254l-1.94,6.48Z"/></g><g class="cls-3"><path class="cls-4" d="M235,263.13V251.69l1.66-.19v11.59c0,.51.16.76.59.76a1.62,1.62,0,0,0,.61-.11l.44,1.15a2.77,2.77,0,0,1-1.32.33A1.87,1.87,0,0,1,235,263.13Z"/></g><g class="cls-3"><path class="cls-4" d="M247.7,255.94a9,9,0,0,1-2.77.29,2.5,2.5,0,0,1,1.67,2.4c0,1.87-1.35,3.22-3.61,3.22a4,4,0,0,1-1.21-.18,1.15,1.15,0,0,0-.47.88c0,.43.27.78,1.24.78h1.52c1.94,0,3.24,1.11,3.24,2.62,0,1.84-1.52,2.88-4.45,2.88-3.1,0-4.07-.95-4.07-2.88h1.49c0,1.08.49,1.59,2.58,1.59s2.77-.52,2.77-1.48-.72-1.35-1.91-1.35h-1.49c-1.69,0-2.45-.84-2.45-1.8a2.06,2.06,0,0,1,1-1.67,2.74,2.74,0,0,1-1.6-2.63,3.39,3.39,0,0,1,3.66-3.32,8.16,8.16,0,0,0,4.34-.84Zm-6.79,2.67a1.92,1.92,0,0,0,2,2.14,1.89,1.89,0,0,0,2-2.16,1.84,1.84,0,0,0-2-2.11A1.91,1.91,0,0,0,240.91,258.61Z"/></g><g class="cls-3"><path class="cls-4" d="M256.83,260.25c0,2.93-1.55,5-4.23,5s-4.23-2-4.23-5,1.54-5,4.25-5S256.83,257.24,256.83,260.25Zm-6.68,0c0,2.47.86,3.62,2.45,3.62s2.45-1.15,2.45-3.63-.87-3.62-2.43-3.62S250.15,257.78,250.15,260.26Z"/></g><g class="cls-3"><path class="cls-4" d="M265.11,255.4,264.8,257a3,3,0,0,0-.82-.1c-1.19,0-1.88.84-2.27,2.66V265h-1.66v-9.49h1.42l.16,1.93a2.73,2.73,0,0,1,2.54-2.15A4.17,4.17,0,0,1,265.11,255.4Z"/></g><g class="cls-3"><path class="cls-4" d="M269,252.09a1.16,1.16,0,1,1-1.17-1.13A1.11,1.11,0,0,1,269,252.09ZM268.69,265H267v-9.49h1.66Z"/></g><g class="cls-3"><path class="cls-4" d="M276.83,264.57a3.62,3.62,0,0,1-2.12.65,2.38,2.38,0,0,1-2.56-2.7v-5.73h-1.66v-1.28h1.66v-2.14l1.66-.2v2.34h2.25l-.18,1.28h-2.07v5.65c0,1,.3,1.41,1.13,1.41a2.33,2.33,0,0,0,1.26-.42Z"/></g><g class="cls-3"><path class="cls-4" d="M285.27,258.19V265h-1.66v-6.57c0-1.42-.61-1.84-1.51-1.84a2.91,2.91,0,0,0-2.39,1.66V265h-1.66V251.71l1.66-.18v5.3a3.4,3.4,0,0,1,2.81-1.54A2.62,2.62,0,0,1,285.27,258.19Z"/></g><g class="cls-3"><path class="cls-4" d="M301.15,258.19V265h-1.66v-6.57c0-1.42-.61-1.84-1.33-1.84-1,0-1.58.67-2.23,1.68V265h-1.66v-6.57c0-1.42-.61-1.84-1.33-1.84-1,0-1.6.67-2.23,1.68V265h-1.66v-9.49h1.42l.15,1.39a3.16,3.16,0,0,1,2.73-1.61,2.41,2.41,0,0,1,2.4,1.72,3.29,3.29,0,0,1,2.83-1.72C300.12,255.29,301.15,256.41,301.15,258.19Z"/></g></g><rect class="cls-2" x="385" y="92" width="120" height="42"/><g class="cls-3"><g class="cls-3"><path class="cls-4" d="M409.78,108H405.1v4.23h4v1.35h-4V119h-1.71V106.59H410Z"/></g><g class="cls-3"><path class="cls-4" d="M414.26,106.09a1.16,1.16,0,1,1-1.17-1.13A1.11,1.11,0,0,1,414.26,106.09ZM413.94,119h-1.66v-9.49h1.66Z"/></g><g class="cls-3"><path class="cls-4" d="M424.52,112.19V119h-1.66v-6.57c0-1.42-.57-1.84-1.49-1.84a2.87,2.87,0,0,0-2.41,1.68V119H417.3v-9.49h1.42l.15,1.41a3.43,3.43,0,0,1,2.9-1.63A2.6,2.6,0,0,1,424.52,112.19Z"/></g><g class="cls-3"><path class="cls-4" d="M435.41,114.82h-6.05c.16,2.2,1.19,3.05,2.56,3.05a4,4,0,0,0,2.46-.83l.72,1a5.13,5.13,0,0,1-3.31,1.19c-2.65,0-4.19-1.86-4.19-4.87s1.49-5.06,3.94-5.06,3.91,1.79,3.91,4.69C435.45,114.3,435.43,114.61,435.41,114.82Zm-1.6-1.33c0-1.85-.74-2.88-2.23-2.88-1.26,0-2.09.88-2.22,3h4.45Z"/></g><g class="cls-3"><path class="cls-4" d="M443.08,118.57a3.62,3.62,0,0,1-2.12.65,2.38,2.38,0,0,1-2.56-2.7v-5.73h-1.66v-1.28h1.66v-2.14l1.65-.2v2.34h2.26l-.18,1.28h-2.08v5.65c0,1,.31,1.41,1.14,1.41a2.33,2.33,0,0,0,1.26-.42Z"/></g><g class="cls-3"><path class="cls-4" d="M451.35,119h-1.42l-.13-1.48a3.18,3.18,0,0,1-2.95,1.7c-1.66,0-2.65-1-2.65-2.9v-6.81h1.66v6.63c0,1.29.43,1.78,1.46,1.78a2.84,2.84,0,0,0,2.37-1.64v-6.77h1.66Z"/></g><g class="cls-3"><path class="cls-4" d="M461.53,112.19V119h-1.66v-6.57c0-1.42-.57-1.84-1.49-1.84a2.87,2.87,0,0,0-2.41,1.68V119h-1.66v-9.49h1.42l.15,1.41a3.43,3.43,0,0,1,2.9-1.63A2.6,2.6,0,0,1,461.53,112.19Z"/></g><g class="cls-3"><path class="cls-4" d="M467.29,106.09a1.16,1.16,0,1,1-1.17-1.13A1.11,1.11,0,0,1,467.29,106.09ZM467,119h-1.66v-9.49H467Z"/></g><g class="cls-3"><path class="cls-4" d="M477.55,112.19V119h-1.66v-6.57c0-1.42-.57-1.84-1.49-1.84a2.87,2.87,0,0,0-2.41,1.68V119h-1.66v-9.49h1.42l.15,1.41a3.41,3.41,0,0,1,2.9-1.63A2.6,2.6,0,0,1,477.55,112.19Z"/></g><g class="cls-3"><path class="cls-4" d="M489,109.94a9,9,0,0,1-2.77.29,2.5,2.5,0,0,1,1.67,2.4c0,1.87-1.35,3.22-3.61,3.22a4,4,0,0,1-1.21-.18,1.15,1.15,0,0,0-.47.88c0,.43.27.78,1.24.78h1.52c1.94,0,3.24,1.11,3.24,2.62,0,1.84-1.52,2.88-4.45,2.88-3.1,0-4.07-1-4.07-2.88h1.49c0,1.08.49,1.59,2.58,1.59s2.77-.52,2.77-1.48-.72-1.35-1.91-1.35h-1.49c-1.69,0-2.45-.84-2.45-1.8a2.06,2.06,0,0,1,1-1.67,2.74,2.74,0,0,1-1.6-2.63,3.39,3.39,0,0,1,3.66-3.32,8.16,8.16,0,0,0,4.34-.84Zm-6.79,2.67a1.92,1.92,0,0,0,2,2.14,1.89,1.89,0,0,0,2-2.16,1.84,1.84,0,0,0-2-2.11A1.91,1.91,0,0,0,482.17,112.61Z"/></g></g><rect class="cls-2" x="558" y="92" width="120" height="42"/><g class="cls-3"><g class="cls-3"><path class="cls-4" d="M582.57,108h-4.81V112h4.18v1.37h-4.18v4.25h5.15V119h-6.86V106.59h6.72Z"/></g><g class="cls-3"><path class="cls-4" d="M589.7,119h-2l-3.28-9.49h1.8l2.49,8,2.46-8h1.75Z"/></g><g class="cls-3"><path class="cls-4" d="M602.11,118.06l-.37,1.16a1.92,1.92,0,0,1-1.86-1.43,3.23,3.23,0,0,1-2.83,1.43,2.76,2.76,0,0,1-3-2.87c0-2,1.53-3.13,4.18-3.13h1.46v-.7c0-1.37-.67-1.87-2-1.87a8.56,8.56,0,0,0-2.56.5l-.42-1.21a9.37,9.37,0,0,1,3.28-.65c2.29,0,3.33,1.18,3.33,3.16v4.34C601.32,117.61,601.63,117.88,602.11,118.06Zm-2.44-1.56v-2.18h-1.25c-1.74,0-2.63.65-2.63,1.94a1.49,1.49,0,0,0,1.64,1.71A2.43,2.43,0,0,0,599.67,116.5Z"/></g><g class="cls-3"><path class="cls-4" d="M604.83,117.13V105.69l1.66-.19v11.59c0,.51.16.76.59.76a1.62,1.62,0,0,0,.61-.11l.44,1.15a2.77,2.77,0,0,1-1.32.33A1.87,1.87,0,0,1,604.83,117.13Z"/></g><g class="cls-3"><path class="cls-4" d="M617,119h-1.42l-.13-1.48a3.18,3.18,0,0,1-3,1.7c-1.66,0-2.65-1-2.65-2.9v-6.81h1.66v6.63c0,1.29.43,1.78,1.46,1.78a2.84,2.84,0,0,0,2.37-1.64v-6.77H617Z"/></g><g class="cls-3"><path class="cls-4" d="M627.11,118.06l-.37,1.16a1.92,1.92,0,0,1-1.86-1.43,3.23,3.23,0,0,1-2.83,1.43,2.76,2.76,0,0,1-3-2.87c0-2,1.53-3.13,4.18-3.13h1.46v-.7c0-1.37-.67-1.87-2-1.87a8.56,8.56,0,0,0-2.56.5l-.42-1.21a9.37,9.37,0,0,1,3.28-.65c2.29,0,3.33,1.18,3.33,3.16v4.34C626.32,117.61,626.63,117.88,627.11,118.06Zm-2.44-1.56v-2.18h-1.25c-1.74,0-2.63.65-2.63,1.94a1.49,1.49,0,0,0,1.64,1.71A2.43,2.43,0,0,0,624.67,116.5Z"/></g><g class="cls-3"><path class="cls-4" d="M634.71,118.57a3.62,3.62,0,0,1-2.12.65,2.38,2.38,0,0,1-2.56-2.7v-5.73h-1.66v-1.28H630v-2.14l1.66-.2v2.34h2.25l-.18,1.28h-2.07v5.65c0,1,.3,1.41,1.13,1.41a2.33,2.33,0,0,0,1.26-.42Z"/></g><g class="cls-3"><path class="cls-4" d="M637.92,106.09a1.16,1.16,0,1,1-1.17-1.13A1.11,1.11,0,0,1,637.92,106.09ZM637.6,119h-1.66v-9.49h1.66Z"/></g><g class="cls-3"><path class="cls-4" d="M648.72,114.25c0,2.93-1.55,5-4.23,5s-4.23-2-4.23-5,1.54-5,4.25-5S648.72,111.24,648.72,114.25Zm-6.68,0c0,2.47.86,3.62,2.45,3.62s2.45-1.15,2.45-3.63-.87-3.62-2.43-3.62S642,111.78,642,114.26Z"/></g><g class="cls-3"><path class="cls-4" d="M659.16,112.19V119H657.5v-6.57c0-1.42-.57-1.84-1.49-1.84a2.87,2.87,0,0,0-2.41,1.68V119h-1.66v-9.49h1.42l.15,1.41a3.43,3.43,0,0,1,2.9-1.63A2.6,2.6,0,0,1,659.16,112.19Z"/></g></g><path class="cls-2" d="M549.19,118.05l9-4.55-9-4.45Zm-43.68-2.75,45.17-.26v-3l-45.17.26Z"/><g class="cls-3"><g class="cls-3"><path class="cls-2" d="M45.52,52.78c0-1.76-.59-2.7-4.71-3.74s-6.63-2.21-6.63-5.59,3-5.3,7.39-5.3a11.59,11.59,0,0,1,7,2.14L47.25,42.4a9.38,9.38,0,0,0-5.65-1.74c-3.06,0-4.21,1.06-4.21,2.55,0,1.74,1.24,2.35,5.17,3.42s6.32,2.36,6.32,6c0,4.15-4.05,5.79-8.2,5.79a11.24,11.24,0,0,1-7.61-2.62l1.78-2a9,9,0,0,0,5.83,2.11C43.67,55.86,45.52,54.66,45.52,52.78Z"/><path class="cls-2" d="M59.33,41.22a7.8,7.8,0,0,1,6.2-3.07c3.8,0,5.46,2.14,5.46,5.73V58h-3.1V44c0-2.33-1-3.36-3.36-3.36s-4.19,1.72-5.2,3.25V58H56.22V30.77l3.11-.34Z"/><path class="cls-2" d="M94.26,38.56l-.45,6.57H91.26V41H91.1c-3,0-5.12,2.1-6.41,6.38v8.24h4V58H78.56V55.62h3V40.94h-3V38.56H84l.58,4.6c1.49-3.2,3.45-5,7-5A9.08,9.08,0,0,1,94.26,38.56Z"/><path class="cls-2" d="M110.37,55.54h5.49V58H101.27V55.54h6V41h-5.82V38.56h8.92Zm-.2-23.92a2.26,2.26,0,1,1-2.27-2.16A2.13,2.13,0,0,1,110.17,31.62Z"/><path class="cls-2" d="M122.68,38.56h2.64l.24,2.69a8.55,8.55,0,0,1,6.43-3.1c3.82,0,5.46,2.14,5.46,5.73V58h-3.1V46.17c0-4-.38-5.58-3.32-5.58-2.29,0-4.23,1.74-5.24,3.25V58h-3.11Z"/><path class="cls-2" d="M148.14,58H145V30.73l3.1-.39Zm4.23-10.69L162.14,58h-4.08l-9.57-10.62,8.61-8.82h4Z"/><path class="cls-2" d="M175.63,38.15c5.21,0,7.3,4,7.3,10.12,0,5.89-2.68,10.15-7.7,10.15a6.3,6.3,0,0,1-5.3-2.43l-.22,2H167V30.73l3.1-.39V41.09A6.83,6.83,0,0,1,175.63,38.15Zm3.92,10.1c0-5.08-1.59-7.61-4.58-7.61-2.18,0-3.82,1.56-4.88,3.12V53.4a5.29,5.29,0,0,0,4.4,2.51C177.74,55.91,179.55,53.44,179.55,48.25Z"/><path class="cls-2" d="M197.27,55.84a8.7,8.7,0,0,0,5.19-1.75l1.46,2a11,11,0,0,1-6.69,2.29c-5.69,0-8.9-4.08-8.9-10.11s3.33-10.16,8.5-10.16c4.91,0,7.9,3.62,7.9,9.53,0,.66,0,1.27-.08,1.7H191.58C191.75,53.88,194.26,55.84,197.27,55.84ZM191.6,47h10.14c-.08-4.16-2-6.28-4.88-6.28S191.86,42.69,191.6,47Z"/><path class="cls-2" d="M211.3,38.56h2.64l.24,2.69a8.53,8.53,0,0,1,6.42-3.1c3.83,0,5.47,2.14,5.47,5.73V58H223V46.17c0-4-.39-5.58-3.33-5.58-2.29,0-4.22,1.74-5.24,3.25V58h-3.1Z"/><path class="cls-2" d="M247.3,54.05l1.51,2a10.72,10.72,0,0,1-6.57,2.34c-5.82,0-9.12-4-9.12-10.06,0-5.83,3.32-10.21,9.16-10.21a10.05,10.05,0,0,1,6.5,2.25l-1.52,2.07a8.8,8.8,0,0,0-5-1.73c-3.36,0-5.76,2.49-5.76,7.62s2.42,7.39,5.76,7.39A8.73,8.73,0,0,0,247.3,54.05Z"/></g><g class="cls-3"><path class="cls-2" d="M257.26,41.22a7.83,7.83,0,0,1,6.21-3.07c3.8,0,5.46,2.14,5.46,5.73V58h-3.1V44c0-2.33-1.05-3.36-3.36-3.36s-4.19,1.72-5.21,3.25V58h-3.1V30.77l3.1-.34Z"/></g></g><path class="cls-2" d="M188.83,247.89l9-4.5-9-4.5ZM174,122.5V244.89h16.33v-3H175.5l1.5,1.5V122.5Z"/><path class="cls-2" d="M188.33,261.54l8.94-4.63-9.07-4.37ZM82,122.5v136H189.77v-3H83.5L85,257V122.5Z"/><path class="cls-2" d="M377.15,118l9-4.5-9-4.5ZM330.5,251h29.33V113.5l-1.5,1.5h20.32v-3H356.83V249.49l1.5-1.5H330.5Z"/><rect class="cls-2" x="225" y="92" width="77" height="41"/><g class="cls-3"><g class="cls-3"><path class="cls-4" d="M255.45,115a4,4,0,0,1-4.36,4.2,3.93,3.93,0,0,1-4.32-4.2v-8.43h1.71v8.3c0,1.93.85,2.89,2.61,2.89s2.63-1,2.63-2.89v-8.3h1.73Z"/></g><g class="cls-3"><path class="cls-4" d="M263.64,118.57a3.62,3.62,0,0,1-2.12.65,2.38,2.38,0,0,1-2.56-2.7v-5.73H257.3v-1.28H259v-2.14l1.66-.2v2.34h2.25l-.18,1.28h-2.07v5.65c0,1,.3,1.41,1.13,1.41a2.33,2.33,0,0,0,1.26-.42Z"/></g><g class="cls-3"><path class="cls-4" d="M266.84,106.09a1.16,1.16,0,1,1-1.17-1.13A1.11,1.11,0,0,1,266.84,106.09ZM266.52,119h-1.66v-9.49h1.66Z"/></g><g class="cls-3"><path class="cls-4" d="M269.77,117.13V105.69l1.66-.19v11.59c0,.51.16.76.59.76a1.62,1.62,0,0,0,.61-.11l.44,1.15a2.77,2.77,0,0,1-1.32.33A1.87,1.87,0,0,1,269.77,117.13Z"/></g><g class="cls-3"><path class="cls-4" d="M280.67,110.38l-.7,1a4.4,4.4,0,0,0-2.47-.81c-1.08,0-1.75.49-1.75,1.24s.51,1.14,2,1.53c2,.51,3.15,1.3,3.15,3,0,2-1.82,2.89-3.75,2.89a5.26,5.26,0,0,1-3.58-1.25l.88-1a4.35,4.35,0,0,0,2.67.91c1.24,0,2-.54,2-1.44s-.47-1.29-2.3-1.78c-2.06-.54-2.87-1.42-2.87-2.75,0-1.52,1.46-2.62,3.43-2.62A5,5,0,0,1,280.67,110.38Z"/></g></g><path class="cls-2" d="M260,212.71l4.5,9,4.5-9Zm3-90.21v51.11h1.5l-1.5-1.5v42.1h3v-43.6h-1.5l1.5,1.5V122.5Z"/></svg>