<svg id="Layer_1" data-name="Layer 1" xmlns="http://www.w3.org/2000/svg" viewBox="0 0 715 277"><defs><style>.cls-1{fill:none;stroke:#505050;stroke-miterlimit:8;stroke-width:3px;stroke-dasharray:3 3;}.cls-2,.cls-33{fill:#505050;}.cls-3{font-size:18px;fill:#fff;font-family:FiraSans-Regular, Fira Sans;}.cls-4{letter-spacing:0.02em;}.cls-5{letter-spacing:0.01em;}.cls-6{letter-spacing:-0.03em;}.cls-7{letter-spacing:0.01em;}.cls-8{letter-spacing:-0.02em;}.cls-9{letter-spacing:0.03em;}.cls-10{letter-spacing:0.01em;}.cls-11{letter-spacing:0em;}.cls-12{letter-spacing:-0.02em;}.cls-13{fill:#932135;}.cls-14{letter-spacing:-0.03em;}.cls-15{letter-spacing:0em;}.cls-16{letter-spacing:-0.03em;}.cls-17{letter-spacing:0.03em;}.cls-18{letter-spacing:0em;}.cls-19{letter-spacing:-0.02em;}.cls-20{letter-spacing:-0.02em;}.cls-21{letter-spacing:-0.02em;}.cls-22{letter-spacing:0.03em;}.cls-23{letter-spacing:-0.02em;}.cls-24{letter-spacing:0.01em;}.cls-25{letter-spacing:0em;}.cls-26{letter-spacing:0.02em;}.cls-27{letter-spacing:0.01em;}.cls-28{letter-spacing:-0.03em;}.cls-29{letter-spacing:-0.02em;}.cls-30{letter-spacing:0.02em;}.cls-31{letter-spacing:0.01em;}.cls-32{letter-spacing:-0.03em;}.cls-33{font-size:36px;font-family:FiraCode-Regular, Fira Code;}.cls-34{letter-spacing:0em;}.cls-35{letter-spacing:0em;}.cls-36{letter-spacing:-0.01em;}</style></defs><title>diagram</title><rect class="cls-1" x="1.5" y="1.5" width="712" height="177" rx="29.5"/><rect class="cls-2" x="135" y="92" width="78" height="42"/><text class="cls-3" transform="translate(154.55 119)"><tspan class="cls-4">D</tspan><tspan class="cls-5" x="11.99" y="0">a</tspan><tspan class="cls-6" x="21.98" y="0">t</tspan><tspan class="cls-7" x="27.99" y="0">a</tspan><tspan x="37.98" y="0"> </tspan></text><rect class="cls-2" x="38" y="92" width="89" height="42"/><text class="cls-3" transform="translate(56.42 119)"><tspan class="cls-8">M</tspan><tspan class="cls-9" x="14" y="0">o</tspan><tspan class="cls-10" x="24.98" y="0">d</tspan><tspan class="cls-11" x="35.96" y="0">e</tspan><tspan class="cls-12" x="45.95" y="0">l</tspan><tspan x="50.96" y="0"> </tspan></text><rect class="cls-13" x="196" y="221" width="134" height="56"/><text class="cls-3" transform="translate(231.33 244)"><tspan class="cls-14">P</tspan><tspan class="cls-15" x="10.01" y="0">r</tspan><tspan class="cls-16" x="16.99" y="0">u</tspan><tspan class="cls-17" x="27" y="0">n</tspan><tspan class="cls-18" x="38" y="0">i</tspan><tspan class="cls-17" x="43" y="0">n</tspan><tspan class="cls-19" x="54" y="0">g</tspan><tspan x="63" y="0"> </tspan></text><text class="cls-3" transform="translate(223.33 265)"><tspan class="cls-20">A</tspan><tspan class="cls-12" x="10.01" y="0">l</tspan><tspan class="cls-21" x="15.01" y="0">g</tspan><tspan class="cls-22" x="24.01" y="0">o</tspan><tspan class="cls-15" x="35.01" y="0">r</tspan><tspan class="cls-18" x="41.99" y="0">i</tspan><tspan class="cls-6" x="47" y="0">t</tspan><tspan class="cls-17" x="53.01" y="0">h</tspan><tspan class="cls-23" x="64.01" y="0">m</tspan><tspan x="79.02" y="0"> </tspan></text><rect class="cls-2" x="385" y="92" width="120" height="42"/><text class="cls-3" transform="translate(401.59 119)"><tspan class="cls-24">F</tspan><tspan class="cls-25" x="8.98" y="0">i</tspan><tspan class="cls-26" x="14" y="0">n</tspan><tspan class="cls-27" x="24.98" y="0">e</tspan><tspan class="cls-28" x="34.99" y="0">t</tspan><tspan class="cls-29" x="40.99" y="0">u</tspan><tspan class="cls-17" x="51.01" y="0">n</tspan><tspan class="cls-25" x="62.01" y="0">i</tspan><tspan class="cls-26" x="67.03" y="0">n</tspan><tspan x="78.01" y="0">g</tspan></text><rect class="cls-2" x="558" y="92" width="120" height="42"/><text class="cls-3" transform="translate(574.25 119)"><tspan class="cls-30">E</tspan><tspan class="cls-31" x="9.99" y="0">v</tspan><tspan class="cls-7" x="18.97" y="0">a</tspan><tspan class="cls-12" x="28.96" y="0">l</tspan><tspan class="cls-16" x="33.97" y="0">u</tspan><tspan class="cls-7" x="43.97" y="0">a</tspan><tspan class="cls-32" x="53.96" y="0">t</tspan><tspan class="cls-18" x="59.98" y="0">i</tspan><tspan class="cls-22" x="64.98" y="0">o</tspan><tspan x="75.98" y="0">n</tspan></text><path class="cls-2" d="M566.19,118.05l9-4.55-9-4.45Zm-43.68-2.75,45.17-.26,0-3-45.17.26Z" transform="translate(-17)"/><text class="cls-33" transform="translate(30.36 58)"><tspan class="cls-34">shrinkbenc</tspan><tspan x="220.09" y="0">h</tspan></text><path class="cls-2" d="M205.83,247.89l9-4.5-9-4.5ZM191,122.5V244.89h16.33v-3H192.5l1.5,1.5V122.5Z" transform="translate(-17)"/><path class="cls-2" d="M205.33,261.54l8.94-4.63-9.07-4.37ZM99,122.5v136l107.77,0v-3l-106.27,0L102,257V122.5Z" transform="translate(-17)"/><path class="cls-2" d="M394.15,118l9-4.5-9-4.5ZM347.5,251h29.33V113.5l-1.5,1.5h20.32v-3H373.83V249.49l1.5-1.5H347.5Z" transform="translate(-17)"/><rect class="cls-2" x="225" y="92" width="77" height="41"/><text class="cls-3" transform="translate(245.15 119)"><tspan class="cls-35">U</tspan><tspan class="cls-6" x="11.99" y="0">t</tspan><tspan class="cls-18" x="18" y="0">i</tspan><tspan class="cls-36" x="23" y="0">l</tspan><tspan x="28.01" y="0">s</tspan></text><path class="cls-2" d="M277,212.71l4.5,9,4.5-9Zm3-90.21v51.11h1.5l-1.5-1.5v42.1h3v-43.6h-1.5l1.5,1.5V122.5Z" transform="translate(-17)"/></svg>